{"title":"The Hangover Part III 2013 PROPER DVDRip x264 - ViZNU [P2PDL]","uid":8923731,"size":372937330,"categoryP":"video","categoryS":"movies","magnet":"?xt=urn:btih:30687cffdd181105d5e7e3d0f3ac621a47eb6d0d&amp;dn=The+Hangover+Part+III+2013+PROPER+DVDRip+x264+-+ViZNU+%5BP2PDL%5D&amp;tr=udp%3A%2F%2Ftracker.openbittorrent.com%3A80&amp;tr=udp%3A%2F%2Fopen.demonii.com%3A1337&amp;tr=udp%3A%2F%2Ftracker.coppersurfer.tk%3A6969&amp;tr=udp%3A%2F%2Fexodus.desync.com%3A6969","seeders":1,"leechers":0,"uploader":"ValidusVyto","files":-1,"time":1379315185,"description":"_______ Visit us at our Semi Public Bittorrent Community ________\n  &lt;a href=&quot;\nhttp://p2pdl.com&quot; rel=&quot;nofollow&quot; target=&quot;_NEW&quot;&gt;\nhttp://p2pdl.com&lt;/a&gt;  _____________________________ &lt;a href=&quot; http://p2pdl.com&quot; rel=&quot;nofollow&quot; target=&quot;_NEW&quot;&gt; http://p2pdl.com&lt;/a&gt;\n\n &lt;a href=&quot;\nhttp://ultraimg.com/images/QeWc.jpg&quot; rel=&quot;nofollow&quot; target=&quot;_NEW&quot;&gt;\nhttp://ultraimg.com/images/QeWc.jpg&lt;/a&gt;\n\n\nThe Hangover Part III 2013 DVDRip x264 AAC - ViZNU\n\n\nGenre: Comedy\nPlot: When one of their own is kidnapped by an angry gangster, \nthe Wolf Pack must track down Mr. Chow, who has escaped \nfrom prison and is on the lam.\nDirector: Todd Phillips\nStars: Bradley Cooper, Zach Galifianakis, Ed Helms.\nRated: N/A\n\n\nIMDb: &lt;a href=&quot;\nhttp://www.imdb.com/title/tt1951261/&quot; rel=&quot;nofollow&quot; target=&quot;_NEW&quot;&gt;\nhttp://www.imdb.com/title/tt1951261/&lt;/a&gt;\n\n\nFormat                         : MPEG-4\nFile size                      : 351 MiB\nDuration                       : 1h 40mn\nOverall bit rate mode          : Variable\nOverall bit rate               : 490 Kbps\n\nVideo\nFormat                         : AVC\nBit rate                       : 447 Kbps\nWidth                          : 720 pixels\nHeight                         : 304 pixels\nDisplay aspect ratio           : 2.35:1\nFrame rate mode                : Constant\nFrame rate                     : 25.000 fps\nBit depth                      : 10 bits\nStream size                    : 320 MiB (91%)\nWriting library                : x264 core 138 r2358\n\nAudio\nFormat                         : AAC\nBit rate mode                  : Variable\nBit rate                       : 39.9 Kbps\nChannel(s)                     : 2 channels\nChannel positions              : Front: L R\nSampling rate                  : 48.0 KHz\nStream size                    : 28.6 MiB (8%)\n\nSubtitle                       : Yes (English)\n\nSource                         : DVDR.NTSC\n &lt;a href=&quot;\nhttp://cdn.piczend.com/images/VHDavL0T/1379307159_frame1.png&quot; rel=&quot;nofollow&quot; target=&quot;_NEW&quot;&gt;\nhttp://cdn.piczend.com/images/VHDavL0T/1379307159_frame1.png&lt;/a&gt; &lt;a href=&quot;\nhttp://cdn.piczend.com/images/J7QT2Po7/1379307172_frame2.png&quot; rel=&quot;nofollow&quot; target=&quot;_NEW&quot;&gt;\nhttp://cdn.piczend.com/images/J7QT2Po7/1379307172_frame2.png&lt;/a&gt; &lt;a href=&quot;\nhttp://cdn.piczend.com/images/EOAmSt51/1379307181_frame4.png&quot; rel=&quot;nofollow&quot; target=&quot;_NEW&quot;&gt;\nhttp://cdn.piczend.com/images/EOAmSt51/1379307181_frame4.png&lt;/a&gt; &lt;a href=&quot;\nhttp://cdn.piczend.com/images/jQvd0R5K/1379307177_frame5.png&quot; rel=&quot;nofollow&quot; target=&quot;_NEW&quot;&gt;\nhttp://cdn.piczend.com/images/jQvd0R5K/1379307177_frame5.png&lt;/a&gt; &lt;a href=&quot;\nhttp://cdn.piczend.com/images/Xu2RDlFd/1379307161_frame6.png&quot; rel=&quot;nofollow&quot; target=&quot;_NEW&quot;&gt;\nhttp://cdn.piczend.com/images/Xu2RDlFd/1379307161_frame6.png&lt;/a&gt; &lt;a href=&quot;\nhttp://cdn.piczend.com/images/HANj7NaA/1379307181_frame10.png&quot; rel=&quot;nofollow&quot; target=&quot;_NEW&quot;&gt;\nhttp://cdn.piczend.com/images/HANj7NaA/1379307181_frame10.png&lt;/a&gt; &lt;a href=&quot;\nhttp://cdn.piczend.com/images/djzZSAUV/1379307184_frame13.png&quot; rel=&quot;nofollow&quot; target=&quot;_NEW&quot;&gt;\nhttp://cdn.piczend.com/images/djzZSAUV/1379307184_frame13.png&lt;/a&gt; &lt;a href=&quot;\nhttp://cdn.piczend.com/images/dhNYmjsE/1379307181_frame14.png&quot; rel=&quot;nofollow&quot; target=&quot;_NEW&quot;&gt;\nhttp://cdn.piczend.com/images/dhNYmjsE/1379307181_frame14.png&lt;/a&gt;\n\n----------------------------------------------------------------------------------------------------\n\n\nEncoded using revolutionary 10bit encoding, which enables us to provide you more crispier \nand sharper images at small sizes, just make sure you follow our instructions without a fault.\nRecommend to you to use latest version of VLC player. Install K-Lite Codec Pack or shark007 codecs\nin case of any kind of problem in playback (For non-VLC Media Player users). Alternatively, install\nCore AVC codecs, the fastest decoder that there is coupled with Community Center Codec Pack and play\non Windows Media Player Classic. Check sample to be sure.\nEnjoy!\n\nEncoder Notes:Looking For Early Access To Anything You Can Provide DVDScr, R5, DVDR, BluRay, Direct\nAudio, Music Releases and Seedboxes. We require dedicated servers, so as to do more \nand fast releases of movies.\nIf You Got anything to offer please contact us at &quot;&lt;a class=&quot;__cf_email__&quot; href=&quot;/cdn-cgi/l/email-protection&quot; data-cfemail=&quot;bacac8ddfad2cfc9d294d9d5d7&quot;&gt;[email&amp;#160;protected]&lt;/a&gt;&lt;script cf-hash='f9e31' type=&quot;text/javascript&quot;&gt;\n/* &lt;![CDATA[ */!function(){try{var t=&quot;currentScript&quot;in document?document.currentScript:function(){for(var t=document.getElementsByTagName(&quot;script&quot;),e=t.length;e--;)if(t[e].getAttribute(&quot;cf-hash&quot;))return t[e]}();if(t&amp;&amp;t.previousSibling){var e,r,n,i,c=t.previousSibling,a=c.getAttribute(&quot;data-cfemail&quot;);if(a){for(e=&quot;&quot;,r=parseInt(a.substr(0,2),16),n=2;a.length-n;n+=2)i=parseInt(a.substr(n,2),16)^r,e+=String.fromCharCode(i);e=document.createTextNode(e),c.parentNode.replaceChild(e,c)}}}catch(u){}}();/* ]]&gt; */&lt;/script&gt;&quot;.\n\nFacebook Fan Page:  \nSearch P2PDL on FB and hit like!!!\n\nFor more of our team uploads visit @                                          &lt;a href=&quot;\nhttp://thepiratebay.se/user/vitamin_x&quot; rel=&quot;nofollow&quot; target=&quot;_NEW&quot;&gt;\nhttp://thepiratebay.se/user/vitamin_x&lt;/a&gt;\t\t","torrent":{"xt":"urn:btih:30687cffdd181105d5e7e3d0f3ac621a47eb6d0d","amp;dn":"The+Hangover+Part+III+2013+PROPER+DVDRip+x264+-+ViZNU+%5BP2PDL%5D","amp;tr":["udp%3A%2F%2Ftracker.openbittorrent.com%3A80","udp%3A%2F%2Fopen.demonii.com%3A1337","udp%3A%2F%2Ftracker.coppersurfer.tk%3A6969","udp%3A%2F%2Fexodus.desync.com%3A6969"],"infoHash":"30687cffdd181105d5e7e3d0f3ac621a47eb6d0d","infoHashBuffer":{"type":"Buffer","data":[48,104,124,255,221,24,17,5,213,231,227,208,243,172,98,26,71,235,109,13]},"announce":[],"urlList":[]}}